<svg width="81" height="28" fill="none" xmlns="http://www.w3.org/2000/svg"><path d="M.9 12.32v2.16h18.24v-2.16H.9zm1.02-6V8.4h16.14V6.32H1.92zm12.24 7.1v7.4c0 .3-.14.38-.52.4-.36 0-1.84.02-3-.04.34.6.72 1.58.86 2.24 1.74 0 3.02-.04 3.94-.36.9-.36 1.2-1 1.2-2.2v-7.44h-2.48zm-11.4 2.26v6.82h2.28v-6.82H2.76zm1.86 0v1.86h4.52v1.86H4.62v1.86h6.8v-5.58h-6.8zm4.14-11.1c-.22 3.8-.76 5.38-7.08 6.06.38.44.9 1.32 1.06 1.88 7.24-.92 8.2-3.24 8.5-7.94H8.76zm-.44 4.96c2.58.8 5.88 2.1 7.76 2.98l1.76-1.68c-1.96-.82-5.18-2.04-7.72-2.8l-1.8 1.5zM25.84 16.92v3.28c0 2.14.64 2.82 3.3 2.82h3.34c2.12 0 2.8-.72 3.08-3.58-.66-.14-1.68-.52-2.18-.88-.12 2-.26 2.28-1.1 2.28h-2.86c-.98 0-1.16-.06-1.16-.66v-3.26h-2.42zm1.98-.62c1.42.78 3.12 2 3.9 2.88l1.72-1.64c-.86-.9-2.62-2.02-4.04-2.72l-1.58 1.48zm6.96.86c1.06 1.56 2.1 3.62 2.44 4.96l2.34-.98c-.4-1.42-1.54-3.38-2.64-4.86l-2.14.88zm-11.76-.76c-.42 1.64-1.18 3.46-2.1 4.66l2.14 1.2c.96-1.34 1.66-3.36 2.12-5.08l-2.16-.78zm2.16-5.22h9.76v1.72h-9.76v-1.72zm0-3.64h9.76v1.7h-9.76v-1.7zm-2.26-2.08v9.52h14.4V5.46h-14.4zm6.02.92v7.74h2.34V6.38h-2.34zM49.96 8.06c-.24 2.08-.7 4.36-1.34 5.8.56.22 1.56.66 2.02.96.64-1.58 1.2-4.06 1.52-6.36l-2.2-.4zm5.72.22c.82 1.74 1.62 4.08 1.9 5.58l2.22-.78c-.34-1.52-1.16-3.74-2.04-5.5l-2.08.7zm1.24 6.2c-1.46 4.02-4.52 5.82-9.4 6.64.5.56 1.02 1.48 1.24 2.18 5.4-1.22 8.76-3.42 10.42-8.18l-2.26-.64zm-4.06-9.84v12.4h2.28V4.64h-2.28zM41.16 8.6v2.2h5.74V8.6h-5.74zm5.28 0v.42c-.36 6.32-2.1 10.7-5.46 12.46.48.44 1.1 1.3 1.4 1.88 3.92-2.42 5.8-6.8 6.26-14.58l-1.42-.24-.38.06h-.4zm-5.08 6.98c2 1.54 4.72 3.8 5.98 5.22l1.58-1.78c-1.34-1.38-4.14-3.5-6.1-4.96l-1.46 1.52zm0 0l2.04.84c.94-3.1 1.98-7.76 2.46-11.58l-2.32-.16c-.32 3.58-1.28 8.12-2.18 10.9zM70.32 10.8v2.22h6.88V10.8h-6.88zm-3.88 9.54v2.3h13.54v-2.3H66.44zm-4.96-11.1v2.28h6.26V9.24h-6.26zm2.18-4.36v13.28h2.28V4.88h-2.28zM61.04 17.8l.8 2.44c1.86-.64 4.22-1.5 6.4-2.34l-.42-2.22c-2.46.8-5.04 1.64-6.78 2.12zM71.38 7.68h4.8v8.56h-4.8V7.68zm-2.3-2.26V18.5h9.56V5.42h-9.56z" fill="#0080C8"/></svg>